<svg width="512" height="512" viewBox="0 0 512 512" fill="none" xmlns="http://www.w3.org/2000/svg">
<path d="M348.761 335C348.761 335 365.309 408.189 308.425 444.729C270.476 469.105 230.708 454.744 208.438 442.48C198.873 437.213 197.112 424.283 204.844 416.603L234.101 387.56L348.761 335Z" fill="#0D47A1"/>
<path d="M185 170.239C185 170.239 111.214 153.691 74.3803 210.575C49.8032 248.524 64.2843 288.292 76.644 310.562C81.9539 320.127 94.9928 321.888 102.731 314.156L132.014 284.896L185 170.239Z" fill="#0D47A1"/>
<path d="M177.422 390.879L128.17 342.092C121.277 335.267 121.277 324.2 128.17 317.376L149.626 296.119C156.516 289.294 167.688 289.294 174.578 296.119L223.833 344.909C230.722 351.734 230.722 362.8 223.833 369.625L202.373 390.879C195.483 397.707 184.311 397.707 177.422 390.879Z" fill="#1565C0"/>
<path d="M382.78 319.316C341.426 360.796 288.564 383.689 234.505 388L132 285.174C136.297 230.945 159.119 177.917 200.47 136.433C231.157 105.649 268.169 85.1029 307.307 74.7941C309.246 74.2803 311.202 73.7955 313.157 73.3399C355.143 63.4156 399.303 65.1445 440.525 78.5136C453.853 119.865 455.576 164.164 445.667 206.268C445.222 208.236 444.739 210.198 444.227 212.143C433.947 251.404 413.468 288.532 382.78 319.316Z" fill="#BDBDBD"/>
<path d="M249.07 184.768C207.653 226.171 176.809 271.109 159.262 312L132 284.749C136.304 230.625 159.159 177.698 200.58 136.298C231.317 105.573 268.385 85.0667 307.59 74.778C309.532 74.2652 311.491 73.7814 313.446 73.3266C355.496 63.4281 399.718 65.144 441 78.4806C414.222 79.645 382.207 90.1273 348.698 108.563C347.136 109.415 345.571 110.289 344.009 111.182C312.488 129.15 279.808 154.047 249.07 184.768Z" fill="#E4E4EF"/>
<path d="M445.66 206L313 73.3255C355.027 63.4267 399.227 65.1459 440.49 78.483C440.499 78.4894 440.506 78.483 440.512 78.4894C453.855 119.762 455.58 163.976 445.66 206Z" fill="#0D47A1"/>
<path d="M441 78.6036C414.131 79.777 382.003 90.373 348.372 109L313 73.392C355.195 63.3892 399.572 65.1264 441 78.6036Z" fill="#1565C0"/>
<path d="M378 231.5C378 278.72 339.72 317 292.5 317C245.28 317 207 278.72 207 231.5C207 184.28 245.28 146 292.5 146C339.72 146 378 184.28 378 231.5Z" fill="#0D47A1"/>
<path d="M341 230.5C341 259.495 317.495 283 288.5 283C259.505 283 236 259.495 236 230.5C236 201.505 259.505 178 288.5 178C317.495 178 341 201.505 341 230.5Z" fill="white"/>
<path d="M77 443L149.128 423.673C170.049 418.067 177.058 391.914 161.741 376.596L143.404 358.258C128.087 342.943 101.934 349.949 96.3271 370.873L77 443Z" fill="#E8A328"/>
<path d="M77 443L136.368 410.575C153.59 401.167 165.348 379.64 157.534 371.823L148.177 362.467C140.361 354.651 118.833 366.411 109.426 383.633L77 443Z" fill="#D50000"/>
<path d="M295.437 268.713H262V192H291.822C297.244 192 301.311 192.451 305.378 193.805C308.993 195.159 312.155 196.512 313.963 198.769C317.578 202.83 318.933 207.342 318.933 212.306C318.933 218.173 317.126 222.685 313.059 225.844C311.703 226.746 310.8 227.649 310.348 227.649C309.896 228.1 308.992 228.551 307.637 229.003C312.607 229.905 316.222 232.162 318.933 235.32C321.644 238.479 323 242.541 323 247.504C323 252.919 321.193 257.432 317.578 261.493C313.511 266.456 305.83 268.713 295.437 268.713ZM279.17 223.136H287.303C292.274 223.136 295.437 222.685 297.696 221.782C299.955 220.88 301.311 218.623 301.311 215.014C301.311 211.404 300.407 209.147 298.148 208.245C295.889 207.343 292.274 206.44 287.303 206.44H279.17V223.136ZM279.17 254.272H290.918C295.888 254.272 299.503 253.821 301.763 252.467C304.022 251.114 305.377 248.857 305.377 245.247C305.377 241.637 304.022 239.381 301.311 238.027C298.6 236.673 294.533 236.222 288.659 236.222H278.718V254.272H279.17V254.272Z" fill="#1565C0"/>
</svg>
